<?xml version="1.0" standalone="no"?>
<!DOCTYPE svg PUBLIC "-//W3C//DTD SVG 20010904//EN"
 "http://www.w3.org/TR/2001/REC-SVG-20010904/DTD/svg10.dtd">
<svg version="1.0" xmlns="http://www.w3.org/2000/svg"
 width="700.000000pt" height="700.000000pt" viewBox="0 0 700.000000 700.000000"
 preserveAspectRatio="xMidYMid meet">
<metadata>
Created by potrace 1.11, written by Peter Selinger 2001-2013
</metadata>
<g transform="translate(0.000000,700.000000) scale(0.100000,-0.100000)"
fill="#000000" stroke="none">
<path d="M1539 6992 c0 -4 -2 -473 -2 -1042 l-2 -1035 -670 -2 c-369 -1 -714
-2 -768 -2 l-97 -1 2 -507 3 -507 252 0 253 0 0 -30 c0 -17 0 -169 0 -338 l-1
-308 514 0 513 0 -1 -1593 c0 -875 1 -1600 3 -1609 4 -17 37 -18 513 -18 l509
0 0 53 c1 28 1 257 1 507 l0 456 339 0 c298 0 339 -2 342 -16 2 -8 3 -237 3
-507 l-1 -493 683 0 683 0 0 508 0 508 598 0 597 0 0 -506 0 -505 598 -3 597
-2 -2 2287 -3 2287 -593 1 c-387 0 -592 -3 -593 -10 -1 -5 -2 -309 -3 -675
l-1 -665 -1025 0 -1025 0 0 1545 0 1545 -682 343 -683 342 0 -296 0 -296 -37
29 c-21 16 -90 65 -153 108 -63 43 -164 112 -225 154 -60 41 -183 125 -272
187 -90 62 -163 110 -164 106z"/>
</g>
</svg>
