<?xml version="1.0" standalone="no"?>
<!DOCTYPE svg PUBLIC "-//W3C//DTD SVG 20010904//EN"
 "http://www.w3.org/TR/2001/REC-SVG-20010904/DTD/svg10.dtd">
<svg version="1.0" xmlns="http://www.w3.org/2000/svg"
 width="150.000000pt" height="150.000000pt" viewBox="0 0 150.000000 150.000000"
 preserveAspectRatio="xMidYMid meet">
<metadata>
Created by potrace 1.11, written by Peter Selinger 2001-2013
</metadata>
<g transform="translate(0.000000,150.000000) scale(0.100000,-0.100000)"
fill="#000000" stroke="none">
<path d="M804 1196 c-18 -8 -37 -27 -45 -44 -13 -30 -15 -30 -77 -29 -61 2
-65 0 -94 -32 -26 -29 -30 -39 -25 -75 5 -33 14 -48 51 -80 27 -22 46 -47 46
-58 0 -22 -70 -151 -152 -280 -57 -89 -62 -131 -17 -136 29 -3 34 3 89 103 18
33 61 110 96 171 89 155 89 159 20 232 -83 87 -75 100 42 70 41 -10 83 -16 94
-12 20 6 21 24 3 82 -10 31 7 29 102 -12 85 -36 96 -37 298 -21 l69 5 36 -40
c19 -22 46 -42 60 -44 23 -3 25 -8 28 -56 9 -162 -131 -241 -248 -140 -60 52
-92 27 -45 -35 l27 -35 -34 0 c-60 0 -106 -48 -114 -118 -10 -87 -2 -82 -118
-82 -82 0 -108 -3 -120 -16 -20 -19 -5 -54 24 -55 90 -4 310 -1 330 4 15 4 31
20 40 39 21 44 42 55 74 39 51 -28 76 -150 35 -171 -29 -16 -64 -5 -77 25 -17
37 -58 35 -67 -4 -16 -73 81 -125 171 -91 31 12 63 46 65 69 5 56 -4 130 -21
168 -23 53 -52 79 -103 93 -44 13 -95 -6 -128 -49 -25 -31 -34 -27 -30 14 4
43 28 65 70 65 156 0 280 62 322 158 32 73 22 283 -14 319 -17 17 -48 18 -257
6 -167 -9 -169 -9 -257 31 -88 40 -103 42 -149 22z"/>
<path d="M101 1047 c-15 -15 -14 -42 2 -54 6 -5 81 -9 166 -9 145 1 154 2 168
22 12 19 12 24 -2 37 -12 13 -43 16 -169 15 -96 0 -159 -5 -165 -11z"/>
<path d="M1033 1013 c-37 -7 -74 -53 -71 -86 4 -42 31 -43 51 -2 14 29 22 34
58 37 47 3 58 17 34 42 -16 16 -29 17 -72 9z"/>
<path d="M60 910 c-45 -4 -55 -8 -58 -25 -5 -44 7 -47 174 -47 139 0 159 2
170 17 20 27 0 55 -39 55 -18 1 -68 2 -112 3 -44 1 -105 0 -135 -3z"/>
<path d="M124 742 c-19 -13 -23 -40 -7 -54 18 -15 296 -20 326 -6 21 11 22 54
1 62 -22 9 -307 7 -320 -2z"/>
</g>
</svg>
