<svg id="83104215-1b56-4fb7-881e-273be6ea416b" data-name="Layer 1" xmlns="http://www.w3.org/2000/svg" viewBox="0 0 110.32 41.61"><title>luftr-with-text</title><polygon points="41 41.32 41 14.32 34 14.32 34 22.32 22 22.32 22 4.05 14 0 14 3.46 9 0 9 12.32 0 12.32 0 18.32 3 18.32 3 22.32 9 22.32 9 41.32 15 41.32 15 35.32 19 35.32 19 41.32 27 41.32 27 35.32 34 35.32 34 41.32 41 41.32" fill="#6a391b"/><path d="M51.6,41V21.8h5.28V41H51.6Z" transform="translate(0 0.32)" fill="#6a391b"/><path d="M74.58,40.65a5.05,5.05,0,0,1-2.72.61,4.9,4.9,0,0,1-2.64-.57A3.14,3.14,0,0,1,68,39.11,5.26,5.26,0,0,1,65.52,41a3.31,3.31,0,0,1-1.33.27H63.44a4,4,0,0,1-4-4V27.37h5.28v8.53A1.65,1.65,0,0,0,65.13,37a1.31,1.31,0,0,0,2,0,1.65,1.65,0,0,0,.41-1.13V27.37h5.28v9.68a0.86,0.86,0,0,0,.91,1,2,2,0,0,0,.85-0.24v2.85Z" transform="translate(0 0.32)" fill="#6a391b"/><path d="M85.62,25.11a4,4,0,0,0-1.31-.27,6.71,6.71,0,0,0-.87,0,1.25,1.25,0,0,0-.49.17,1.55,1.55,0,0,0-.51,1.33v1h3.2v3.79h-3.2V41H77.17V31.16H75.46V27.37h1.71V25.61q0-4,4.88-4a10.34,10.34,0,0,1,2.23.23,9.93,9.93,0,0,1,1.35.36v2.93Z" transform="translate(0 0.32)" fill="#6a391b"/><path d="M94.88,38a4.28,4.28,0,0,0,1.65-.32v3a9.38,9.38,0,0,1-3.57.59q-3.55,0-4.53-1.95a4.17,4.17,0,0,1-.35-1.81V31.16H86.58V27.37h1.71L90.13,23h3.23v4.35h3.2v3.79h-3.2v5q0,1.55,1,1.76A1.94,1.94,0,0,0,94.88,38Z" transform="translate(0 0.32)" fill="#6a391b"/><path d="M98.48,41V27.37h3.95l0.59,2a4.33,4.33,0,0,1,2.13-1.95,3.49,3.49,0,0,1,1.47-.29,3.38,3.38,0,0,1,3.71,3.65v0.45q0,0.43-.05,1l-0.05.67h-4.32V32.25a1.4,1.4,0,0,0-.33-0.95,1,1,0,0,0-.79-0.39,1,1,0,0,0-.81.39,1.4,1.4,0,0,0-.33.95V41H98.48Z" transform="translate(0 0.32)" fill="#6a391b"/><path d="M26.94,11.16C34.54-.53,53.44,2.3,54.26,18" transform="translate(0 0.32)" fill="none" stroke="#968375" stroke-miterlimit="10" stroke-width="3"/></svg>